<svg width="1219" height="888" viewBox="0 0 1219 888" fill="none" xmlns="http://www.w3.org/2000/svg">
<path d="M569 1.13831C278.867 17.2717 42.7333 197.672 5.79992 431.005C3.26659 447.538 0.333252 479.138 0.333252 491.272V497.005H91.6666C177.533 497.005 183.133 496.872 183.8 494.605C186.733 485.138 193 470.738 201.667 453.672C256.6 345.672 339.533 255.272 426.333 208.738C437.8 202.738 439.133 201.672 435.933 201.272C432.867 200.872 395.4 205.938 381.267 208.605C377 209.405 377 209.405 383 204.738C420.467 175.938 465.933 154.205 508.333 145.005C521.133 142.205 560.467 139.805 565 141.538C566.733 142.205 564.733 145.005 555.8 155.005C536.867 175.938 528.333 191.538 528.333 205.138V211.938L514.867 199.138C507.4 192.072 500.867 186.338 500.067 186.338C498.2 186.338 471.4 212.738 455.933 229.672C407.4 283.405 376.467 343.672 367.533 402.338C364.867 420.605 364.733 452.872 367.533 466.872C368.733 472.738 369.4 477.672 369.133 477.938C368.867 478.205 352.6 473.538 333 467.672C313.4 461.672 297.133 457.005 296.867 457.272C296.6 457.538 298.467 462.205 300.733 467.672C306.2 480.072 314.867 493.272 326.333 506.738L335.133 517.005H167.667H0.333252V593.005V669.005H609.667H1219V593.005V517.005H1075.27H931.4L928.867 514.205C927.533 512.605 922.733 508.872 918.467 505.805L910.6 500.338L1064.87 499.938L1219 499.672V492.605C1219 488.872 1218.33 477.272 1217.67 467.005C1210.33 368.472 1170.73 279.672 1098.07 199.405C1081.8 181.272 1043.67 145.938 1042.6 147.805C1033.67 164.338 1029.13 175.805 1027.8 185.405L1026.87 191.805L1023.13 186.738C1019.27 181.405 1012.47 174.872 1003.93 168.472L999 164.738L989.933 172.472C957 201.005 935.4 223.805 913.533 252.872C877.8 300.738 856.067 350.605 847.533 404.338C844.6 422.738 844.2 459.805 846.867 475.405C847.8 481.405 848.467 486.605 848.2 486.872C847.933 487.138 833.933 482.472 817.267 476.605C800.6 470.872 786.6 466.338 786.2 466.605C785.267 467.538 797 494.872 803 505.938C805.933 511.272 808.333 515.938 808.333 516.338C808.333 516.738 780.467 517.005 746.333 517.005C712.067 517.005 684.333 516.472 684.333 515.805C684.333 514.072 695.4 489.405 703.133 474.205C706.733 466.738 709.667 460.472 709.4 460.205C708.6 459.538 679.667 473.005 667.533 479.672C655.933 486.072 656.2 487.272 663.933 466.338C704.867 355.538 799.133 249.405 913.267 185.538C921.933 180.738 929.267 176.472 929.667 176.072C930.067 175.672 928.2 175.672 925.667 176.072C921.133 176.872 869.667 183.005 855 184.472L847.667 185.138L851 182.338C859.533 175.138 885.4 159.005 901.667 150.472C928.6 136.472 965.4 123.005 989 118.338C993.4 117.538 997.8 116.605 998.867 116.205C1001.13 115.538 993.667 110.205 971.667 97.005C856.333 27.5383 711.667 -6.86169 569 1.13831ZM798.6 130.605C789.133 138.338 775.133 162.872 767 186.338C765.267 191.138 763.533 195.538 763 196.072C762.467 196.605 757.133 191.672 751 185.005C745 178.472 739.533 173.005 738.867 173.005C736.467 173.005 700.6 209.138 687.4 225.005C648.6 271.405 621.4 325.005 610.333 377.138C604.6 403.538 602.6 443.805 605.667 465.538C606.467 470.605 606.867 475.005 606.6 475.138C606.333 475.405 589.133 471.138 568.2 465.672C547.4 460.205 529.533 455.672 528.6 455.672C524.867 455.672 545.133 490.872 559.267 508.605L565.933 517.005H501H436.2L437.133 513.938C438.467 509.405 449.133 486.072 455.8 472.738L461.667 461.005L440.2 471.672C428.333 477.672 418.467 482.205 418.067 481.938C417.267 481.138 421 467.272 425.8 452.605C454.467 367.272 524.067 285.272 623.667 219.405C634.733 212.072 651.267 201.805 660.6 196.605C669.933 191.405 677.267 186.872 676.867 186.472C674.733 184.338 649.533 188.072 626.467 193.805C619.267 195.672 613 196.872 612.6 196.472C612.333 196.072 616.733 190.872 622.467 185.005C657.933 148.605 718.067 127.672 791 126.605L803.667 126.472L798.6 130.605ZM52.9999 538.872C55.3999 539.938 58.0666 541.938 58.8666 543.405C59.7999 545.272 60.3333 563.672 60.3333 598.738V651.405L56.0666 655.005C51.9333 658.472 51.6666 658.605 35.2666 658.072C18.9999 657.672 18.7333 657.538 15.5333 653.938L12.3333 650.205V597.938C12.3333 540.205 12.1999 541.005 20.7333 538.472C27.5333 536.472 47.7999 536.738 52.9999 538.872ZM104.6 538.338C113.933 541.005 113.667 539.672 113.667 597.938V650.205L110.467 653.938C107.267 657.538 107 657.672 90.7333 658.072C74.3333 658.605 74.0666 658.472 69.9333 655.005L65.6666 651.405V598.738C65.6666 563.672 66.1999 545.272 67.1333 543.538C67.9333 541.938 70.4666 539.938 72.7333 539.005C77.7999 536.738 97.5333 536.472 104.6 538.338ZM159.267 538.338C168.6 541.005 168.333 539.672 168.333 597.938V650.205L165.133 653.938C162.067 657.538 161.4 657.672 147 658.072C130.333 658.605 126.733 658.072 123 654.338C120.467 651.805 120.333 649.672 120.333 597.938V544.072L123.4 541.405C125 539.805 127.533 538.338 129 537.938C134.067 536.738 154.333 537.005 159.267 538.338ZM215.933 539.672C221.533 543.272 221.8 546.072 221.4 600.072L221 651.538L217.933 654.605C215.267 657.405 213.4 657.672 199.533 658.072C189.4 658.472 182.733 658.072 180.2 656.872C172.467 653.805 172.333 652.738 172.333 597.138V546.605L175.667 542.472C179.933 537.538 181.667 537.138 199 537.538C208.467 537.672 213.933 538.338 215.933 539.672ZM270.6 541.405L274.333 545.005L274.733 594.738C275 627.938 274.733 645.938 273.667 649.272C271.4 657.138 267.133 658.605 248.067 658.072C232.467 657.672 232.067 657.538 228.867 653.938L225.667 650.205V598.872C225.667 541.805 225.8 540.872 234.067 538.472C236.333 537.672 244.733 537.272 252.6 537.405C266.333 537.672 267.133 537.938 270.6 541.405ZM322.6 540.472L326.333 543.272L326.733 597.405L327 651.405L322.733 655.005C318.6 658.472 318.333 658.605 301.933 658.072C285.667 657.672 285.4 657.538 282.2 653.938L279 650.205V597.938C279 540.205 278.867 541.005 287.4 538.472C289.8 537.672 297.8 537.272 305.267 537.405C316.733 537.672 319.4 538.072 322.6 540.472ZM368.733 545.272L380.2 553.672L380.333 602.605V651.405L376.2 654.872C372.333 658.205 371.4 658.338 356.333 658.338C341.267 658.338 340.333 658.205 336.467 654.872L332.333 651.405V598.738C332.333 563.672 332.867 545.272 333.8 543.538C335.8 539.672 342.467 537.138 350.467 537.005C356.733 537.005 358.2 537.672 368.733 545.272ZM480.6 538.472C489.667 540.872 489.667 541.005 489.667 598.872V650.205L486.467 653.938C483.4 657.538 482.733 657.672 468.333 658.072C451.667 658.605 448.067 658.072 444.333 654.338C441.8 651.805 441.667 649.672 441.667 597.938V544.072L444.733 541.405C446.333 539.805 448.867 538.338 450.333 537.938C455.4 536.738 475.667 537.005 480.6 538.472ZM536.6 538.472C545.667 540.872 545.667 541.005 545.667 598.872V650.205L542.467 653.938C539.267 657.538 538.867 657.672 523.267 658.072C504.2 658.605 499.933 657.138 497.667 649.272C496.6 645.938 496.333 627.938 496.6 594.738L497 545.272L500.2 541.805C501.933 539.938 504.6 538.205 506.2 537.938C512.067 536.738 531.933 537.138 536.6 538.472ZM592.733 543.805L600.333 550.605V599.005C600.333 626.605 599.8 649.005 599 650.872C596.867 656.605 591.4 658.338 575.667 658.338C559.933 658.338 554.467 656.605 552.333 650.872C551.533 648.872 551 625.938 551 597.005V546.605L554.333 542.472C558.333 537.805 559.933 537.405 574.333 537.272L585 537.005L592.733 543.805ZM705 541.005L708.333 544.072V597.938C708.333 649.672 708.2 651.805 705.667 654.338C701.933 658.072 698.333 658.605 681.667 658.072C667.267 657.672 666.6 657.538 663.533 653.938C660.333 650.205 660.333 649.938 660.333 619.672C660.333 593.005 660.6 589.138 662.333 589.805C663.4 590.338 664.333 590.072 664.333 589.272C664.333 582.738 673.533 542.338 676.067 537.805C676.333 537.272 682.333 537.005 689.133 537.272C699.933 537.672 702.067 538.205 705 541.005ZM755.667 538.872C758.067 539.938 760.733 541.938 761.533 543.405C762.467 545.272 763 563.672 763 598.738V651.405L758.733 655.005C754.6 658.472 754.333 658.605 737.933 658.072C721.667 657.672 721.4 657.538 718.2 653.938L715 650.205V597.938C715 540.205 714.867 541.005 723.4 538.472C730.2 536.472 750.467 536.738 755.667 538.872ZM807.267 538.338C816.6 541.005 816.333 539.672 816.333 597.938V650.205L813.133 653.938C809.933 657.538 809.667 657.672 793.4 658.072C777 658.605 776.733 658.472 772.6 655.005L768.333 651.405V598.738C768.333 563.672 768.867 545.272 769.8 543.538C770.6 541.938 773.133 539.938 775.4 539.005C780.467 536.738 800.2 536.472 807.267 538.338ZM975.133 542.072L979 546.338V597.138C979 652.738 978.867 653.805 971.133 656.872C968.6 658.072 961.933 658.472 951.8 658.072C937.933 657.672 936.067 657.405 933.4 654.605L930.333 651.538L929.933 600.072C929.533 545.805 929.8 542.605 935.4 539.938C941 537.272 942.467 537.138 956.733 537.405L971.267 537.672L975.133 542.072ZM1028.87 540.872L1032.33 544.072V597.938C1032.33 649.672 1032.2 651.805 1029.67 654.338C1025.93 658.072 1022.33 658.605 1005.67 658.072C991.267 657.672 990.6 657.538 987.533 653.938L984.333 650.205V598.872C984.333 541.805 984.467 540.872 992.733 538.472C995 537.672 1003.4 537.272 1011.27 537.405C1024.2 537.672 1025.8 537.938 1028.87 540.872ZM1082.6 540.472L1086.33 543.272L1086.73 596.472C1087 634.738 1086.6 650.472 1085.53 652.605C1083 657.405 1077.8 658.605 1061 658.072C1045.8 657.672 1045.4 657.538 1042.2 653.938L1039 650.205V597.938C1039 540.205 1038.87 541.005 1047.4 538.472C1049.8 537.672 1057.8 537.272 1065.27 537.405C1076.73 537.672 1079.4 538.072 1082.6 540.472ZM1138.6 540.472L1142.33 543.272L1142.73 597.405L1143 651.405L1138.73 655.005C1134.6 658.472 1134.33 658.605 1117.93 658.072C1101.67 657.672 1101.4 657.538 1098.2 653.938L1095 650.205V597.938C1095 540.205 1094.87 541.005 1103.4 538.472C1105.8 537.672 1113.8 537.272 1121.27 537.405C1132.73 537.672 1135.4 538.072 1138.6 540.472ZM1191.67 538.872C1194.07 539.938 1196.73 541.938 1197.53 543.405C1198.47 545.272 1199 563.672 1199 598.738V651.405L1194.73 655.005C1190.6 658.472 1190.33 658.605 1173.93 658.072C1157.67 657.672 1157.4 657.538 1154.2 653.938L1151 650.205V597.938C1151 540.205 1150.87 541.005 1159.4 538.472C1166.2 536.472 1186.47 536.738 1191.67 538.872ZM920.067 541.005C921.667 542.472 923.267 545.138 923.667 546.738C924.067 548.338 924.2 572.605 924.067 600.605L923.667 651.538L920.6 654.605C917.933 657.405 916.067 657.672 902.2 658.072C891.933 658.472 885.4 658.072 882.733 656.872C875.8 654.072 875 649.938 875 616.205C875 599.672 875.4 586.338 876.067 586.605C876.6 586.872 880.733 589.005 885.267 591.405C889.8 593.672 893.933 595.672 894.333 595.672C894.733 595.672 895 591.938 895 587.272C895 577.805 897.667 567.672 902.6 557.672C906.467 550.205 914.733 538.338 916.2 538.338C916.733 538.338 918.467 539.538 920.067 541.005ZM432.867 542.605C434.733 545.138 435 552.738 435 597.938V650.205L431.8 653.938C428.733 657.538 428.067 657.672 413.667 658.072C396.6 658.605 393.4 658.072 389.667 654.072C387.133 651.272 387 649.538 387 604.738V558.338L394.067 562.872C397.8 565.272 405.4 569.805 410.733 572.738L420.333 578.205V571.938C420.333 565.938 422.867 553.005 425.8 543.938C427.4 539.005 429.933 538.472 432.867 542.605ZM841.4 558.072C849.933 566.605 860.2 575.805 863.933 578.338L870.867 583.005L871 616.605V650.205L867.8 653.938C864.733 657.538 864.067 657.672 849.667 658.072C833 658.605 829.4 658.072 825.667 654.338C823.133 651.805 823 649.672 823 597.938C823 550.205 823.267 542.338 825.267 542.338C825.533 542.338 832.733 549.405 841.4 558.072ZM617.267 563.138C623 567.272 633.8 574.205 641.4 578.605L655 586.605V616.472C655 649.938 654.2 654.072 647.267 656.872C644.6 658.072 638.067 658.472 627.667 658.072C612.467 657.672 612.067 657.538 608.867 653.938L605.667 650.205V602.872C605.667 576.872 605.933 555.672 606.2 555.672C606.6 555.672 611.533 559.005 617.267 563.138Z" fill="#3452B5"/>
<path d="M1053 108.605C1045.53 109.138 1009.27 114.072 1004.6 115.272C1001.93 115.938 1002.2 116.338 1007.93 119.938C1015.4 124.738 1034.33 138.872 1039.13 143.272L1042.6 146.472L1050.33 135.405C1054.6 129.272 1060.2 121.672 1062.87 118.338C1072.33 106.738 1072.07 107.672 1065.53 107.938C1062.33 108.072 1056.73 108.338 1053 108.605Z" fill="#3452B5"/>
<path d="M61.8128 849.674C46.7899 849.674 35.0011 845.449 26.4465 836.999C17.9961 828.548 13.7709 816.342 13.7709 800.381V738.568H34.1144V799.598C34.1144 810.865 36.5139 819.055 41.3128 824.167C46.2161 829.279 53.1016 831.835 61.9692 831.835C70.8369 831.835 77.6702 829.279 82.4692 824.167C87.2681 819.055 89.6676 810.865 89.6676 799.598V738.568H109.698V800.381C109.698 816.342 105.421 828.548 96.8661 836.999C88.4157 845.449 76.7313 849.674 61.8128 849.674ZM234.742 849.674C226.187 849.674 217.998 848.475 210.173 846.075C202.349 843.571 196.141 840.389 191.551 836.529L198.593 820.724C202.975 824.167 208.4 827.036 214.868 829.331C221.336 831.626 227.961 832.774 234.742 832.774C240.48 832.774 245.122 832.148 248.669 830.896C252.216 829.644 254.824 827.975 256.494 825.888C258.163 823.697 258.997 821.246 258.997 818.533C258.997 815.195 257.798 812.534 255.398 810.552C252.999 808.466 249.869 806.849 246.009 805.701C242.253 804.449 238.028 803.302 233.333 802.258C228.743 801.215 224.101 800.015 219.406 798.659C214.816 797.199 210.59 795.373 206.73 793.182C202.975 790.887 199.897 787.862 197.498 784.106C195.098 780.35 193.898 775.551 193.898 769.709C193.898 763.762 195.463 758.337 198.593 753.434C201.827 748.427 206.678 744.462 213.146 741.541C219.719 738.516 228.013 737.003 238.028 737.003C244.6 737.003 251.121 737.838 257.589 739.507C264.057 741.176 269.691 743.575 274.49 746.705L268.074 762.51C263.17 759.589 258.111 757.451 252.894 756.094C247.678 754.634 242.67 753.904 237.871 753.904C232.238 753.904 227.648 754.582 224.101 755.938C220.658 757.294 218.102 759.068 216.433 761.259C214.868 763.449 214.085 765.953 214.085 768.77C214.085 772.108 215.233 774.821 217.528 776.907C219.928 778.89 223.005 780.454 226.761 781.602C230.621 782.75 234.898 783.897 239.593 785.045C244.288 786.088 248.93 787.288 253.52 788.644C258.215 790 262.44 791.774 266.196 793.965C270.056 796.155 273.133 799.129 275.429 802.884C277.828 806.64 279.028 811.387 279.028 817.125C279.028 822.967 277.411 828.392 274.177 833.4C271.047 838.303 266.196 842.267 259.623 845.293C253.051 848.214 244.757 849.674 234.742 849.674ZM382.488 848.109V755.781H346.183V738.568H439.137V755.781H402.832V848.109H382.488ZM593.992 738.568H614.335V848.109H593.992V738.568ZM537.343 848.109H517V738.568H537.343V848.109ZM595.557 801.163H535.622V783.793H595.557V801.163ZM706.283 848.109V738.568H757.611C770.756 738.568 780.771 741.176 787.657 746.392C794.542 751.504 797.985 758.39 797.985 767.049C797.985 772.891 796.629 777.898 793.916 782.071C791.204 786.14 787.552 789.322 782.962 791.617C778.476 793.808 773.573 794.903 768.252 794.903L771.069 789.27C777.224 789.27 782.753 790.417 787.657 792.713C792.56 794.903 796.42 798.138 799.237 802.415C802.158 806.692 803.618 812.013 803.618 818.377C803.618 827.766 800.019 835.069 792.821 840.285C785.622 845.501 774.929 848.109 760.741 848.109H706.283ZM726.626 832.148H759.489C767.104 832.148 772.947 830.896 777.015 828.392C781.084 825.888 783.118 821.872 783.118 816.342C783.118 810.917 781.084 806.953 777.015 804.449C772.947 801.841 767.104 800.537 759.489 800.537H725.061V784.732H755.42C762.514 784.732 767.939 783.48 771.695 780.976C775.555 778.472 777.485 774.717 777.485 769.709C777.485 764.597 775.555 760.789 771.695 758.285C767.939 755.781 762.514 754.53 755.42 754.53H726.626V832.148ZM993.768 848.109V738.568H1014.11V848.109H993.768ZM1106.34 848.109V738.568H1123.08L1191.78 822.915H1183.48V738.568H1203.67V848.109H1186.93L1118.23 763.762H1126.52V848.109H1106.34Z" fill="#3452B5"/>
</svg>
