<svg width="564" height="832" viewBox="0 0 564 832" fill="none" xmlns="http://www.w3.org/2000/svg">
<path d="M207.073 103.149C296.365 32.867 362.875 11.6552 476 1.23377C511.193 -2.00834 564.5 -0.766231 564.5 -0.766231V832.234H41.3855C41.3855 832.234 23.1176 788.755 25.7737 755.03C29.2267 711.187 73.4105 696.124 71.6021 652.181C69.6859 605.622 25.1892 593.767 11.169 549.332C-15.4889 464.844 9.98087 407.314 41.3855 324.476C79.6698 223.492 122.256 169.91 207.073 103.149Z" fill="#A6BBFF"/>
<path d="M353.944 632.777C405.061 563.679 484.105 518.416 563.5 485.574L563.5 831.734L282.296 831.734C290.868 795.654 283.457 835.57 282.296 798.506C280.088 728.034 312.013 689.458 353.944 632.777Z" fill="#7696FF" fill-opacity="0.62"/>
<path d="M66.1402 532.182C66.1402 532.182 36.2835 425.018 92.854 361.825C129.08 321.362 188.176 333.4 188.176 333.4C188.176 333.4 268.879 211.027 347.814 263.164C453.884 333.232 451.527 263.501 507.368 304.161C574.04 352.65 507.368 538.833 507.368 538.833L66.1402 532.182Z" fill="#466EF2"/>
<path d="M501.391 346.027C454.838 288.839 419.818 366.736 351.743 315.834C254.26 242.932 247.132 434.11 214.245 428.61C167.355 420.809 161.799 379.56 107.53 414.103C93.9765 422.717 75.8211 444.829 70.7982 470.701C65.5228 497.864 72.0329 529.517 72.0329 529.517L503.439 537.991C515.253 508.219 538.375 391.43 501.391 346.027Z" fill="#3E62D9"/>
<path d="M512.166 539.675H63.8672C58.9846 539.675 55 535.69 55 530.807V529.517H521.033V530.807C521.033 535.69 517.049 539.675 512.166 539.675Z" fill="#3452B5"/>
<path d="M240.033 313.336H288.297C292.899 313.336 296.631 309.604 296.631 305.002V288.334C296.631 283.732 292.899 280 288.297 280H240.033C235.431 280 231.699 283.732 231.699 288.334V305.002C231.699 309.604 235.431 313.336 240.033 313.336Z" fill="#3452B5"/>
<path d="M278.392 309.464L258.637 326.974L262.958 308.903L278.392 309.464Z" fill="#3452B5"/>
<path d="M445.634 361.096L444.568 356.241C444.568 356.241 441.06 358.458 439.012 361.629C436.963 364.8 435.981 373.274 435.392 373.611C434.831 373.92 428.349 363.958 427.226 362.387C425.823 360.422 425.29 358.206 424.42 356.522C423.55 354.81 420.464 354.249 419.285 354.445C418.107 354.67 420.885 359.609 420.885 359.609C420.885 359.609 427.9 371.815 430.229 378.466C432.586 385.144 439.882 388.343 441.06 387.389C442.211 386.435 445.634 361.096 445.634 361.096Z" fill="#F48C7F"/>
<path d="M424.336 357.448C424.336 357.448 424.055 356.157 423.27 355.905C422.484 355.624 421.109 355.877 421.025 355.905C420.941 355.933 419.397 355.119 419.397 355.119L420.66 357.448C420.66 357.448 423.101 360.338 423.943 359.244C424.757 358.178 424.336 357.448 424.336 357.448Z" fill="#F7A491"/>
<path d="M418.976 355.203C418.976 355.203 418.078 359.721 418.303 360.647C418.527 361.601 419.089 361.096 419.201 360.899C419.65 360.058 419.958 357.167 419.958 357.167L418.976 355.203Z" fill="#F48C7F"/>
<path d="M420.885 358.963C420.885 358.963 420.464 361.741 420.015 362.078C419.734 362.303 419.369 362.162 419.257 361.601C419.145 361.04 419.818 357.588 419.818 357.588L420.885 358.963Z" fill="#F48C7F"/>
<path d="M423.466 366.876L424.925 366.175L418.696 353.379C417.882 353.772 417.545 354.754 417.938 355.568L423.466 366.876Z" fill="#1E2B5F"/>
<path d="M439.124 341.06C438.254 337.076 437.384 333.035 439.685 328.63C441.565 325.094 444.82 323.046 448.581 322.597C459.216 321.334 456.943 331.267 471.815 333.428C476.445 334.073 480.738 334.719 484.583 337.02C491.57 341.173 494.179 347.823 489.577 358.683C478.241 385.228 450.489 362.695 447.037 357.476C444.512 353.576 439.685 343.642 439.124 341.06Z" fill="#1E2B5F"/>
<path d="M481.664 508.808C481.664 508.808 482.422 516.496 484.386 517.928C486.322 519.331 488.932 524.55 487.641 527.384C487.22 528.282 486.406 528.787 485.48 529.068C482.759 529.909 479.84 528.478 478.662 525.869C478.016 524.41 477.455 522.473 477.343 520.004C477.034 513.747 475.098 510.576 475.098 510.576L481.664 508.808Z" fill="#F7A491"/>
<path d="M451.751 511.979C451.751 511.979 451.134 519.724 451.639 522.249C451.892 523.596 453.379 526.374 452.705 527.665C452.032 528.927 451.246 529.236 451.246 529.236L433.568 529.517C432.614 529.545 433.231 528.927 434.017 528.366C435.28 527.412 436.318 526.795 440.359 524.859C440.639 524.718 441.593 524.101 441.958 523.904C442.828 523.371 443.726 522.501 444.484 521.66C445.746 520.257 445.859 513.41 445.859 513.41L451.751 511.979Z" fill="#F7A491"/>
<path d="M437.945 408.771C437.945 408.771 435.701 421.37 437.16 429.648C438.619 437.898 445.634 514.504 445.634 514.504L453.435 514.925C453.435 514.925 455.062 482.936 454.782 478.502C454.473 474.04 452.172 466.604 452.172 466.604L452.958 440.76L443.109 406.835L437.945 408.771Z" fill="#1E2B5F"/>
<path d="M460.843 406.133C460.843 406.133 466.96 415.337 468.419 422.97C469.907 430.602 467.353 454.033 470.159 464.023C471.703 469.439 477.455 477.801 478.325 484.788C479.223 491.775 482.646 510.099 482.646 510.099L474.873 511.642L456.746 465.903L442.547 424.569L438.928 403.271L460.843 406.133Z" fill="#1E3877"/>
<path d="M455.876 353.688C455.876 353.688 461.236 354.305 464.463 357.785C467.662 361.292 459.272 389.381 458.682 393.843C458.093 398.276 463.453 408.659 463.453 408.659C463.453 408.659 443.389 412.391 437.945 408.771C437.945 408.771 437.356 376.782 437.945 373.611C438.507 370.412 443.389 357.504 444.568 356.241C445.718 354.951 455.876 353.688 455.876 353.688Z" fill="#F5FFF5"/>
<path d="M463.481 360.422C462.948 358.851 461.18 358.121 459.664 358.767C457.588 359.665 454.726 361.377 453.323 364.267C450.994 369.149 442.8 385.902 440.275 386.519C437.749 387.164 427.423 369.149 427.423 369.149C427.423 369.149 427.703 365.978 426.833 364.183C425.964 362.387 423.326 360.479 422.933 361.096C422.54 361.741 424.392 363.313 424.392 363.649C424.392 363.958 423.606 364.183 422.54 363.537C421.474 362.892 420.885 361.629 420.885 361.629C420.885 361.629 419.145 364.8 420.997 367.662C422.849 370.524 423.606 371.703 423.606 371.703C423.606 371.703 435.588 398.276 439.966 398.613C444.063 398.894 467.578 372.825 463.481 360.422Z" fill="#F7A491"/>
<path d="M453.154 342.856C453.154 342.856 453.211 343.081 453.295 343.502C453.631 345.438 455.034 351.92 455.989 353.688C457.111 355.849 452.088 362.695 447.234 361.854C445.802 361.601 448.468 355.568 448.328 354.923C448.075 353.688 447.739 352.032 447.402 350.293C447.206 349.338 447.037 348.356 446.841 347.43C446.336 344.821 445.887 342.66 445.887 342.66L453.154 342.856Z" fill="#F7A491"/>
<path d="M453.295 343.502C453.211 343.081 453.154 342.856 453.154 342.856L445.887 342.66C445.887 342.66 446.336 344.821 446.841 347.43C447.009 348.356 447.206 349.338 447.402 350.293C448.524 350.124 449.703 349.591 450.881 348.553C452.144 347.43 452.986 346.083 453.491 344.652C453.407 344.203 453.351 343.81 453.295 343.502Z" fill="#F47458"/>
<path d="M448.805 325.599C448.805 325.599 451.751 325.992 453.912 328.77C456.045 331.548 458.374 340.106 453.042 344.765C447.711 349.423 442.435 344.147 441.65 338.563C440.864 332.979 441.032 325.375 448.805 325.599Z" fill="#F7A491"/>
<path d="M439.938 336.655C440.583 337.89 441.649 338.563 442.323 338.17C443.024 337.777 443.053 336.459 442.407 335.224C441.762 333.989 440.695 333.316 440.022 333.709C439.349 334.101 439.32 335.42 439.938 336.655Z" fill="#F7A491"/>
<path d="M447.879 325.459C447.879 325.459 452.453 333.596 455.736 333.989C459.019 334.354 459.44 338.675 459.44 338.675C459.44 338.675 458.261 328.714 455.034 326.778C451.779 324.869 447.879 325.459 447.879 325.459Z" fill="#1E2B5F"/>
<path d="M454.67 335.925C454.389 337.356 454.95 338.703 455.876 338.872C456.802 339.068 457.756 338.058 458.037 336.599C458.289 335.168 457.756 333.849 456.83 333.652C455.904 333.456 454.922 334.466 454.67 335.925Z" fill="#F7A491"/>
<path d="M478.157 524.494C482.394 525.279 485.2 522.782 486.687 520.93C487.753 523.035 488.427 525.672 487.641 527.384C486.94 528.899 485.031 529.32 483.432 529.376C481.72 529.432 480.121 528.563 479.279 527.075C478.886 526.402 478.493 525.532 478.157 524.494Z" fill="#FC716E"/>
<path d="M441.958 523.904C446.616 525.083 450.068 524.269 452.004 523.512C452.509 524.915 453.182 526.682 452.818 527.693C452.397 528.955 451.779 529.236 451.246 529.236C446.981 529.348 435.616 529.517 432.361 529.545C431.884 529.545 431.632 529.04 431.94 528.675C432.754 527.721 441.593 524.101 441.958 523.904Z" fill="#FC716E"/>
<path d="M404.974 303.122H443.922C447.626 303.122 450.629 300.12 450.629 296.388V282.947C450.629 279.243 447.626 276.24 443.922 276.24H404.974C401.27 276.24 398.239 279.243 398.239 282.947V296.388C398.239 300.12 401.27 303.122 404.974 303.122Z" fill="#3452B5"/>
<path d="M433.933 299.418L439.04 314.711L424.196 299.418H433.933Z" fill="#3452B5"/>
<path d="M435.252 290.691C435.252 292.066 436.43 293.161 437.889 293.161C439.32 293.161 440.499 292.066 440.499 290.691C440.499 289.344 439.32 288.25 437.889 288.25C436.43 288.25 435.252 289.344 435.252 290.691Z" fill="#F5FFF5"/>
<path d="M421.839 290.691C421.839 292.066 423.017 293.161 424.476 293.161C425.907 293.161 427.086 292.066 427.086 290.691C427.086 289.344 425.907 288.25 424.476 288.25C423.017 288.25 421.839 289.344 421.839 290.691Z" fill="#F5FFF5"/>
<path d="M408.426 290.691C408.426 292.066 409.604 293.161 411.063 293.161C412.494 293.161 413.673 292.066 413.673 290.691C413.673 289.344 412.494 288.25 411.063 288.25C409.604 288.25 408.426 289.344 408.426 290.691Z" fill="#F5FFF5"/>
<path d="M196.202 298.829H150.126C145.749 298.829 142.185 295.265 142.185 290.86V274.977C142.185 270.572 145.749 267.008 150.126 267.008H196.202C200.579 267.008 204.143 270.572 204.143 274.977V290.86C204.143 295.265 200.579 298.829 196.202 298.829Z" fill="#1E3877"/>
<path d="M161.912 294.423L155.879 312.523L173.445 294.423H161.912Z" fill="#1E3877"/>
<path d="M160.368 284.125C160.368 285.725 158.965 287.015 157.253 287.015C155.542 287.015 154.167 285.725 154.167 284.125C154.167 282.526 155.542 281.235 157.253 281.235C158.965 281.235 160.368 282.526 160.368 284.125Z" fill="#F5FFF5"/>
<path d="M176.223 284.125C176.223 285.725 174.848 287.015 173.136 287.015C171.424 287.015 170.021 285.725 170.021 284.125C170.021 282.526 171.424 281.235 173.136 281.235C174.848 281.235 176.223 282.526 176.223 284.125Z" fill="#F5FFF5"/>
<path d="M192.105 284.125C192.105 285.725 190.702 287.015 188.99 287.015C187.279 287.015 185.904 285.725 185.904 284.125C185.904 282.526 187.279 281.235 188.99 281.235C190.702 281.235 192.105 282.526 192.105 284.125Z" fill="#F5FFF5"/>
<path d="M329.939 414.299C333.251 413.345 333.335 413.934 333.756 413.794C334.233 413.626 338.217 408.238 338.217 408.238C338.217 408.238 350.031 392.468 350.648 391.598L354.38 371.17L365.605 371.086C365.605 371.086 360.919 393.141 360.442 394.236C359.993 395.33 341.248 414.608 339.649 416.348C339.649 416.348 338.638 419.21 337.909 420.95C337.207 422.717 335.692 424.008 335.411 424.485C335.383 424.541 334.345 426 332.521 427.432C330.978 428.666 331.792 426.758 331.792 426.758C331.792 426.758 334.205 423.924 333.924 423.756C333.7 423.615 332.493 425.243 330.781 426.646C330.36 426.983 329.911 427.347 329.519 427.656C328.452 428.498 327.554 428.049 328.508 426.983C328.845 426.618 329.406 426 329.883 425.636C330.388 425.243 330.725 424.71 331.09 424.289C331.82 423.503 332.381 422.914 332.325 422.914C332.269 422.886 332.269 422.605 331.792 422.97C331.23 423.419 330.248 424.625 329.322 425.187C328.817 425.523 327.807 426.253 327.807 426.253C327.807 426.253 326.011 427.095 325.899 426.983C325.394 426.506 326.432 425.58 327.19 425.243C327.526 424.766 328.621 424.008 328.621 424.008C328.621 424.008 330.473 421.988 330.136 421.707C329.996 421.567 328.705 422.689 327.246 423.559C325.899 424.373 324.383 424.962 324.131 424.71C323.738 424.261 325.141 423.194 325.141 423.194C325.141 423.194 326.151 422.521 326.46 422.268C326.853 421.96 327.891 420.978 327.891 420.978C327.891 420.978 331.315 417.33 330.978 417.077C330.641 416.853 329.603 416.516 329.294 416.656C328.986 416.797 328.621 417.358 328.312 417.498C328.003 417.666 327.47 417.582 327.218 417.217C326.965 416.853 328.087 415.59 328.087 415.59C328.087 415.59 329.013 414.552 329.939 414.299Z" fill="#F48C7F"/>
<path d="M348.572 516.749C348.572 516.749 348.965 523.792 348.965 523.82C349.105 524.69 349.694 526.907 349.694 527.721C349.694 530.779 336.085 525.139 339.143 523.764C339.424 523.652 340.855 522.726 340.939 521.688C341.08 520.088 341.444 516.833 341.444 516.833L348.572 516.749Z" fill="#F7A491"/>
<path d="M339.172 523.736C339.172 523.736 342.37 524.69 343.998 524.915C345.625 525.139 347.786 523.175 348.937 523.708C350.227 524.297 350.087 530.05 350.087 530.05C350.087 530.05 333.054 531.06 328.256 529.517C326.348 528.899 332.661 525.925 339.172 523.736Z" fill="#1E2B5F"/>
<path d="M378.513 517.422C378.513 517.422 378.906 524.466 378.906 524.494C379.074 525.392 379.635 527.58 379.635 528.394C379.635 531.453 366.054 525.813 369.084 524.466C369.365 524.325 371.245 522.726 371.329 521.66C371.469 520.06 371.385 517.535 371.385 517.535L378.513 517.422Z" fill="#F7A491"/>
<path d="M369.112 524.438C369.112 524.438 372.311 525.364 373.939 525.588C375.594 525.841 377.755 523.848 378.906 524.382C380.168 524.971 380.224 530.246 380.224 530.246C380.224 530.246 362.013 531.565 357.72 530.33C355.811 529.769 362.602 526.598 369.112 524.438Z" fill="#1E2B5F"/>
<path d="M356.962 415.702L351.238 418.172L339.143 475.921L339.62 519.19L349.33 519.415C349.33 519.415 353.819 481.561 353.819 478.642C353.819 475.696 374.696 427.291 374.696 427.291L356.962 415.702Z" fill="#E5E5E5"/>
<path d="M361.396 418.873C361.396 418.873 365.633 463.349 365.633 470.87C365.633 478.362 369.084 520.313 369.084 520.313L378.793 520.257C378.793 520.257 379.495 507.489 380.533 488.66C380.701 485.714 380.309 479.765 380.533 476.706C382.048 454.763 385.023 434.11 383.592 425.916C383.367 424.597 382.946 421.146 382.105 420.276C375.735 413.71 361.396 418.873 361.396 418.873Z" fill="#F5FFF5"/>
<path d="M349.554 383.769L361.311 382.983C361.311 382.983 361.901 372.489 361.901 367.466C361.901 361.376 363.753 352.425 363.023 352.593C360.975 353.07 357.467 354.923 355.84 357.195C350.199 365.052 349.554 383.769 349.554 383.769Z" fill="#3452B5"/>
<path d="M377.418 352.341C377.418 352.341 384.125 353.295 385.865 354.586C387.857 356.045 390.074 359.3 390.074 359.3C390.074 359.3 381.852 398.22 381.824 404.758C381.824 409.809 383.592 422.268 383.592 422.268C383.592 422.268 358.73 423.84 349.301 420.108C349.301 420.108 352.276 405.32 352.276 401.447C352.276 397.547 355.84 362.246 356.653 359.777C357.383 357.532 358.73 353.52 363.276 352.509C367.822 351.527 377.418 352.341 377.418 352.341Z" fill="#3452B5"/>
<path d="M375.566 341.874L377.25 352.734C377.25 352.734 371.189 365.67 367.569 364.547C364.538 363.621 366.39 352.173 366.39 352.173C366.39 352.173 368.046 346.027 367.541 342.941C367.064 339.882 375.566 341.874 375.566 341.874Z" fill="#F7A491"/>
<path d="M367.541 342.941C367.064 339.882 375.566 341.874 375.566 341.874L375.707 342.772C375.454 343.39 375.173 343.895 374.781 344.288C372.901 346.336 369.898 347.543 367.345 347.655C367.597 345.999 367.765 344.203 367.541 342.941Z" fill="#F47458"/>
<path d="M376.969 326.497C377.222 326.413 378.906 338.872 375.707 342.323C372.48 345.747 366.25 346.869 364.005 344.175C361.536 341.173 361.648 327.788 366.643 324.252C371.61 320.716 376.969 326.497 376.969 326.497Z" fill="#F7A491"/>
<path d="M368.523 317.602C372.395 318.359 374.893 320.716 375.791 321.699C377.559 321.923 379.916 322.877 382.385 326.918C385.416 331.885 383.171 337.385 379.663 340.078C376.156 342.8 376.184 345.915 376.184 345.915L375.651 344.288C375.23 343.081 375.061 341.762 375.202 340.499C375.286 339.714 375.454 338.9 375.763 338.198C376.605 336.402 373.939 335.196 373.209 333.709C372.62 332.558 372.592 329.92 371.694 328.012L370.6 326.553C370.6 326.553 368.13 324.617 365.689 325.15C363.248 325.711 363.584 316.592 368.523 317.602Z" fill="#1E2B5F"/>
<path d="M373.378 335.925C373.35 337.441 374.023 338.675 374.921 338.703C375.791 338.731 376.549 337.497 376.577 335.982C376.605 334.466 375.903 333.203 375.005 333.203C374.135 333.175 373.406 334.41 373.378 335.925Z" fill="#F7A491"/>
<path d="M360.301 391.935L360.161 392.861C360.077 393.338 359.628 393.646 359.151 393.562L339.901 390.251C339.424 390.167 339.115 389.69 339.2 389.213L339.368 388.287C339.452 387.81 339.901 387.501 340.378 387.585L359.6 390.925C360.077 391.009 360.385 391.458 360.301 391.935Z" fill="#1E2B5F"/>
<path d="M387.576 357.364C385.303 357.308 383.311 372.18 384.742 373.639C386.173 375.098 386.454 393.422 386.454 393.422L365.184 392.917H365.156C364.763 392.636 360.301 389.634 359.656 388.988C358.982 388.287 355.727 388.652 354.886 389.578C354.016 390.532 356.794 389.746 357.551 390.279C358.309 390.784 356.99 392.075 356.99 392.075C356.99 392.075 351.602 392.861 350.536 391.738C349.498 390.616 346.692 388.736 346.299 389.858C346.103 390.419 347.562 392.187 348.375 392.917C347.337 392.131 346.131 391.345 345.71 391.486C344.952 391.738 345.261 392.692 345.682 393.001C346.103 393.282 350.368 396.537 351.041 396.761C351.687 396.986 361.648 397.238 363.36 397.631C363.36 397.631 391.421 404.001 393.02 403.608C394.423 403.271 395.826 394.292 395.826 387.417C395.826 380.514 394.62 357.56 387.576 357.364Z" fill="#F7A491"/>
<path d="M384.63 353.968C384.63 353.968 388.559 354.866 392.627 359.44C396.303 363.565 398.632 386.772 398.632 386.772L385.893 388.848L384.883 377.624L381.487 372.489L384.63 353.968Z" fill="#3452B5"/>
<path d="M221.12 331.66C221.12 331.66 210.709 328.994 209.475 340.078C208.212 351.162 213.852 352.874 210.793 358.234C207.735 363.565 204.311 359.553 203.638 374.761C202.965 389.942 237.816 408.406 246.992 399.399C276.82 370.075 241.408 358.121 242.867 349.142C244.298 340.163 240.201 332.53 234.757 329.275C229.314 326.02 222.354 326.02 221.12 331.66Z" fill="#1E2B5F"/>
<path d="M256.504 520.088C256.504 520.088 256.308 522.979 257.795 524.634C259.254 526.262 264.726 527.132 265.456 529.012C266.213 530.892 259.956 531.004 257.851 530.415C255.747 529.853 250.275 529.404 248.928 529.32C247.553 529.236 250.668 520.172 250.948 519.92C251.229 519.667 256.504 520.088 256.504 520.088Z" fill="#FF7446"/>
<path d="M224.515 518.292C224.515 518.292 225.862 524.41 225.722 526.767C225.61 529.124 222.747 532.772 220.531 532.659C218.342 532.519 216.518 531.06 217.051 528.198C217.584 525.336 219.24 518.517 219.24 518.517L224.515 518.292Z" fill="#FF7446"/>
<path d="M208.156 415.281C208.156 415.281 206.753 368.785 208.97 366.568C209.839 365.698 217.079 363.313 222.018 362.499C229.398 361.292 235.178 361.797 235.178 361.797C235.178 361.797 242.727 370.833 242.727 374.172C242.727 377.511 243.204 415.618 243.204 415.618C249.012 417.779 258.048 456.362 258.721 466.324C259.395 476.257 257.936 522.53 257.936 522.53L249.433 521.604C244.803 514.336 242.727 476.089 241.38 471.319C239.5 464.752 230.717 444.633 230.717 444.633L226.199 442.641C226.199 442.641 227.265 472.974 226.872 479.961C226.479 486.977 226.928 520.818 226.928 520.818L218.426 520.369C211.748 508.415 207.005 453.276 207.146 450.385C207.314 447.495 204.368 442.781 203.75 434.503C203.273 427.993 208.156 415.281 208.156 415.281Z" fill="#3452B5"/>
<path d="M223.056 415.674H238.153V414.075H223.056V415.674Z" fill="#F5FFF5"/>
<path d="M229.229 416.32H232.148C232.681 416.32 233.13 415.871 233.13 415.337V414.636C233.13 414.103 232.681 413.682 232.148 413.682H229.229C228.696 413.682 228.275 414.103 228.275 414.636V415.337C228.275 415.871 228.696 416.32 229.229 416.32Z" fill="#1E3877"/>
<path d="M208.156 415.281C208.156 415.281 206.921 374.004 208.633 367.382C210.822 365.894 217.865 363.257 219.576 363.144C219.268 366.512 222.354 385.621 225.497 395.414C227.49 401.616 227.209 409.192 226.451 415.085C225.974 418.761 225.273 422.296 224.431 425.411C224.263 425.467 219.576 427.965 211.439 427.965C211.074 427.965 208.044 427.74 204.536 427.207C205.827 421.314 208.156 415.281 208.156 415.281Z" fill="#3452B5"/>
<path d="M233.186 425.86C233.018 425.271 234.393 418.564 234.813 415.085H234.842C237.704 391.851 235.122 362.246 235.066 361.797C235.066 361.797 235.075 361.797 235.094 361.797C235.262 361.966 235.739 362.527 236.413 363.313C238.433 365.894 242.306 371.114 242.671 373.779C242.689 373.854 242.699 373.929 242.699 374.004C242.699 374.023 242.699 374.051 242.699 374.088C242.699 374.481 242.699 375.323 242.699 376.473C242.717 376.698 242.727 376.932 242.727 377.175C242.839 386.996 243.204 415.618 243.204 415.618C245.084 416.32 247.301 420.809 249.461 426.926C242.446 427.375 233.691 427.488 233.186 425.86Z" fill="#3452B5"/>
<path d="M199.934 421.342C199.906 427.151 215.592 427.572 223.056 424.233L222.242 398.95L219.689 362.976C219.689 362.976 210.26 364.856 207.061 367.017C207.061 367.017 206.023 404.45 205.097 412.054C204.199 419.659 199.934 418.677 199.934 421.342Z" fill="#FC716E"/>
<path d="M243.484 363.846C243.484 363.846 247.16 393.646 247.16 401.391C247.16 409.164 248.619 422.549 248.619 422.549C248.619 422.549 240.678 425.608 235.15 424.233C235.15 424.233 240.398 394.348 240.398 392.384C240.398 390.447 235.066 361.797 235.066 361.797C235.066 361.797 240.145 362.05 243.484 363.846Z" fill="#FC716E"/>
<path d="M248.395 522.165L258.693 522.838L258.721 520.172L248.002 519.583L248.395 522.165Z" fill="#3452B5"/>
<path d="M217.275 520.453L227.462 521.127L227.546 518.461L216.827 517.871L217.275 520.453Z" fill="#3452B5"/>
<path d="M249.489 524.073C250.303 525.083 252.969 527.188 260.714 526.262C262.734 527.075 265.007 527.861 265.456 529.012C266.213 530.892 259.956 531.004 257.851 530.415C255.747 529.853 250.275 529.404 248.928 529.32C248.17 529.292 248.76 526.57 249.489 524.073Z" fill="#1E2B5F"/>
<path d="M225.722 526.767C225.61 529.124 222.747 532.772 220.531 532.659C218.342 532.519 216.518 531.06 217.051 528.198C217.219 527.216 217.528 525.813 217.865 524.354C218.145 526.149 218.987 529.208 221.316 528.142C223.87 526.991 224.992 524.354 225.441 523.315C225.638 524.662 225.778 525.925 225.722 526.767Z" fill="#1E2B5F"/>
<path d="M247.721 412.784C244.747 412.644 240.959 412.447 237.227 412.279C237.451 410.988 237.676 409.641 237.9 408.322L247.441 408.827C247.525 410.146 247.609 411.493 247.721 412.784Z" fill="#1E2B5F"/>
<path d="M222.663 411.605C222.644 411.605 222.626 411.605 222.607 411.605C220.278 411.605 211.27 414.075 208.015 414.075C206.753 414.075 205.714 413.71 204.901 413.261C204.919 413.242 204.929 413.214 204.929 413.177C205.004 412.821 205.06 412.447 205.097 412.054C205.116 411.848 205.144 411.633 205.181 411.409C205.294 410.286 205.378 408.996 205.462 407.817H222.523L222.663 411.605Z" fill="#1E2B5F"/>
<path d="M243.4 363.902C243.4 363.902 246.206 364.491 250.135 377.68C254.063 390.84 251.454 407.761 248.732 409.529C246.01 411.269 219.689 410.623 219.689 410.623L219.576 401.139C219.576 401.139 239.528 398.024 241.492 395.611C241.969 394.993 241.155 392.468 241.324 389.55C241.857 380.654 243.4 363.902 243.4 363.902Z" fill="#FC716E"/>
<path d="M242.446 394.208C242.446 394.208 245.168 392.328 246.178 391.065C247.216 389.802 249.265 388.118 249.349 389.016C249.433 389.914 248.507 391.205 248.507 391.205C248.507 391.205 252.239 388.595 252.716 389.016C253.221 389.409 253.698 392.187 253.362 395.274C253.025 398.361 244.298 400.605 244.298 400.605L242.446 394.208Z" fill="#DC7A63"/>
<path d="M207.623 412.11C217.107 413.682 237.171 406.639 245.28 404.085L242.25 393.534C242.25 393.534 218.286 400.156 215.171 398.753C213.6 398.052 209.643 390.672 208.184 383.18C206.697 375.491 207.061 367.017 207.061 367.017C207.061 367.017 200.186 376.024 202.123 395.077C203.582 409.613 203.442 411.409 207.623 412.11Z" fill="#FF8B88"/>
<path d="M210.008 390.447C210.008 390.447 212.253 392.356 213.992 393.787C215.76 395.218 218.482 399.034 218.482 399.034C218.482 399.034 215.255 399.82 214.105 399.932C212.954 400.044 209.222 397.968 207.903 398.08C206.612 398.22 206.977 396.284 208.577 396.621C210.176 396.958 211.747 397.126 211.747 397.126C211.747 397.126 208.015 394.657 206.276 393.225C204.508 391.822 205.939 390.728 207.37 391.907C208.801 393.057 210.344 393.731 210.344 393.731C210.344 393.731 205.294 389.465 206.051 388.567C206.781 387.669 210.008 390.447 210.008 390.447Z" fill="#DC7A63"/>
<path d="M230.66 351.387C230.66 351.387 231.194 358.907 231.895 360.563C232.092 361.04 232.428 361.377 232.793 361.629C234.785 362.976 231.25 379.728 229.454 379.363C227.518 378.971 222.691 368.56 221.148 365.193C220.699 364.183 221.092 363.004 222.102 362.527C223.786 361.797 222.551 347.992 222.551 347.992L230.66 351.387Z" fill="#F26E5A"/>
<path d="M223.673 347.458C223.673 347.458 223.252 347.683 223.309 348.244C223.393 349.395 224.01 350.854 224.515 351.892C226.928 356.69 230.408 359.019 232.793 359.356C232.176 356.915 231.755 350.854 231.755 350.854L223.673 347.458Z" fill="#F26E5A"/>
<path d="M222.298 342.071C222.298 342.071 223.533 336.627 227.602 335.027C231.671 333.4 235.403 334.607 236.834 339.938C238.237 345.27 236.188 353.716 233.719 356.298C231.222 358.879 222.607 354.558 222.298 342.071Z" fill="#FC7E72"/>
<path d="M223.505 343.782C223.505 343.782 221.457 340.612 220.222 342.464C218.959 344.287 220.082 348.665 222.439 348.889C224.824 349.114 223.505 343.782 223.505 343.782Z" fill="#FC7E72"/>
<path d="M119.961 517.591C119.961 517.591 119.961 517.843 119.961 518.236C119.961 519.415 120.157 522.052 121.785 523.989C123.973 526.57 124.001 529.769 121.672 530.33C119.371 530.864 113.872 530.134 113.872 530.134C113.872 530.134 112.609 527.693 113.479 521.127C114.32 514.56 114.826 507.377 114.826 507.377L121.083 506.254L119.961 517.591Z" fill="#FF7446"/>
<path d="M121.195 520.397C121.195 520.397 123.524 523.961 124.086 525.476C124.619 526.963 124.507 530.667 124.086 531.06C120.297 534.427 113.17 531.397 113.17 531.397C113.17 531.397 112.693 528.927 112.44 525.897C112.188 522.866 112.328 520.032 113.17 520.032C114.012 520.032 114.18 521.632 116.088 521.183C118.025 520.734 119.231 519.948 121.195 520.397Z" fill="#1E2B5F"/>
<path d="M112.581 527.412C114.04 528.057 116.004 528.787 117.828 529.096C119.792 529.404 122.43 528.422 124.422 527.44C124.507 529.012 124.366 530.807 124.086 531.06C120.297 534.427 113.17 531.397 113.17 531.397C113.17 531.397 112.833 529.713 112.581 527.412Z" fill="#F5FFF5"/>
<path d="M138.088 513.269C137.274 516.188 138.088 519.387 140.164 521.295C140.894 521.968 141.736 522.586 142.662 523.063C146.338 524.859 151.08 524.466 151.726 528.17C152.399 531.902 128.547 527.131 128.547 527.131C128.547 527.131 130.203 518.068 130.315 516.553C130.399 515.037 130.147 509.481 130.147 509.481L139.379 508.724L138.088 513.269Z" fill="#FF7446"/>
<path d="M129.501 520.734C129.501 520.734 129.221 522.165 128.547 524.606C127.874 527.047 128.295 529.348 128.295 529.348C128.295 529.348 150.631 530.527 151.529 529.741C152.455 528.927 151.978 526.009 151.754 525.757C151.529 525.504 148.695 524.634 147.236 523.596C145.777 522.586 140.81 518.741 139.126 518.91C137.471 519.05 136.685 520.453 133.486 520.621C130.315 520.79 130.287 520.032 129.501 520.734Z" fill="#1E2B5F"/>
<path d="M151.529 529.741C150.631 530.527 128.295 529.348 128.295 529.348C128.295 529.348 128.014 527.833 128.267 525.953C139.94 528.422 151.754 525.757 151.754 525.757C151.978 526.009 152.455 528.927 151.529 529.741Z" fill="#F5FFF5"/>
<path d="M128.267 525.953C136.236 527.777 145.075 527.384 151.754 525.757C139.603 527.833 129.782 526.234 130.455 526.29C130.427 526.29 128.126 525.953 128.267 525.953Z" fill="#9CB9BD"/>
<path d="M110.757 424.205L112.833 515.935L122.879 514.504C122.879 514.504 126.078 440.901 127.93 438.712C129.782 436.523 130.54 438.852 130.54 438.852C130.54 438.852 138.537 469.467 137.05 475.584C135.562 481.701 128.912 514.42 128.912 514.42L138.537 514.841C138.537 514.841 149.537 489.755 149.537 472.301C149.537 454.847 142.746 425.832 142.746 425.832L110.757 424.205Z" fill="#1E3877"/>
<path d="M128.519 514.785H140.108V512.091H128.519V514.785Z" fill="#1E2B5F"/>
<path d="M111.963 515.935H123.665V512.54H111.963V515.935Z" fill="#1E2B5F"/>
<path d="M114.994 513.887C115.013 513.887 115.041 513.877 115.078 513.859C115.218 513.831 115.331 513.634 115.303 513.438C113.451 503.729 113.31 440.62 113.31 439.975C113.31 439.778 113.198 439.638 113.03 439.638C112.861 439.638 112.721 439.778 112.721 439.975C112.721 442.584 112.833 503.813 114.713 513.606C114.741 513.775 114.854 513.887 114.994 513.887Z" fill="#1E2B5F"/>
<path d="M130.54 513.887C130.68 513.887 130.792 513.775 130.82 513.634C131.269 512.203 141.848 478.334 141.259 473.648C140.67 469.046 133.907 439.975 133.626 438.74C133.57 438.572 133.402 438.459 133.262 438.516C133.093 438.544 133.009 438.74 133.037 438.937C133.121 439.245 140.08 469.186 140.67 473.76C141.259 478.25 130.371 513.045 130.259 513.41C130.203 513.578 130.287 513.775 130.455 513.859C130.474 513.877 130.502 513.887 130.54 513.887Z" fill="#1E2B5F"/>
<path d="M140.95 359.973L154.981 378.466L138.453 384.471L140.95 359.973Z" fill="#FFD19D"/>
<path d="M104.471 353.997C106.604 351.864 111.571 350.293 114.798 349.451C116.65 348.974 118.586 348.861 120.494 349.142L127.762 350.124C127.762 350.124 137.218 356.185 140.754 359.721C144.289 363.285 147.488 385.453 147.488 385.453L145.889 393.899L147.741 431.108C146.927 431.108 122.542 434.11 108.989 430.041C108.989 430.041 108.989 410.174 108.624 398.136C107.025 388.988 101.665 356.803 104.471 353.997Z" fill="#F5FFF5"/>
<path d="M104.64 353.856C105.762 352.818 107.474 351.976 108.877 351.387C108.877 351.387 111.571 349.928 113.984 359.973C116.425 370.019 113.338 382.226 114.433 383.32C115.499 384.386 139.238 383.18 139.238 383.18C139.238 383.18 125.376 391.149 118.586 396.958C115.892 399.287 108.68 400.493 108.68 400.437C108.662 399.633 108.643 398.866 108.624 398.136C107.838 393.703 101.356 356.887 104.64 353.856Z" fill="#FFD19D"/>
<path d="M164.493 375.014L152.567 397.519C152.287 398.052 151.726 398.389 151.136 398.333L136.994 397.519C135.983 397.435 135.31 396.424 135.647 395.442L142.943 374.902C143.167 374.312 143.672 373.92 144.289 373.892L163.062 372.769C164.241 372.685 165.054 373.948 164.493 375.014Z" fill="#3452B5"/>
<path d="M134.524 395.33L141.932 374.986C142.129 374.397 142.662 374.004 143.279 373.976L144.009 373.92C143.588 374.088 143.251 374.425 143.083 374.846L135.703 395.414C135.366 396.284 135.899 397.238 136.797 397.435L135.899 397.379C134.861 397.322 134.188 396.284 134.524 395.33Z" fill="#3452B5"/>
<path d="M107.867 381.384L108.989 385.425C108.989 385.425 132.925 379.251 135.731 377.904C138.032 376.81 147.067 374.369 150.435 374.621C150.968 374.649 151.052 375.435 150.519 375.547C148.386 376.08 144.177 377.147 144.177 377.568C144.177 378.129 148.414 378.943 148.106 379.644C147.488 381.019 145.412 381.833 145.019 383.124C144.626 384.414 140.333 383.404 138.846 383.404C137.386 383.404 110.055 399.988 101.777 396.06C93.5275 392.103 98.5223 374.649 98.5223 374.649L107.867 381.384Z" fill="#F99662"/>
<path d="M152.764 390.027C153.325 389.493 153.297 388.146 153.914 387.501C154.56 386.884 155.233 388.146 155.401 386.715C155.57 385.284 154.56 383.067 155.542 383.18C156.552 383.292 157.899 387.333 157.899 387.333C158.6 388.988 155.401 395.162 153.718 394.741C152.034 394.32 151.389 392.328 151.389 391.373C151.389 390.447 152.231 390.588 152.764 390.027Z" fill="#F99662"/>
<path d="M127.762 350.124C127.78 350.124 127.79 350.134 127.79 350.152C127.808 350.152 127.818 350.152 127.818 350.152C127.818 350.152 127.827 350.162 127.846 350.18C127.846 350.18 127.855 350.18 127.874 350.18C127.893 350.199 127.911 350.208 127.93 350.208C127.93 350.227 127.939 350.236 127.958 350.236C127.977 350.255 127.995 350.274 128.014 350.293C128.033 350.293 128.042 350.293 128.042 350.293C128.042 350.293 128.052 350.302 128.07 350.321C128.07 350.321 128.08 350.321 128.098 350.321C128.098 350.339 128.108 350.349 128.126 350.349C128.164 350.386 128.211 350.414 128.267 350.433C128.267 350.452 128.276 350.461 128.295 350.461C129.193 351.05 131.101 352.313 133.233 353.828C133.233 353.828 134.131 357.364 133.71 359.637C133.29 361.938 132.392 362.639 131.129 362.134C129.866 361.629 127.481 358.262 126.948 358.458C126.415 358.627 122.739 363.229 120.971 362.527C119.792 362.022 116.201 354.221 114.433 349.563C114.545 349.526 114.667 349.488 114.798 349.451C116.65 348.974 118.586 348.861 120.494 349.142L127.762 350.124Z" fill="#F5FFF5"/>
<path d="M131.578 344.372C131.017 347.346 130.736 350.573 131.241 352.453C131.241 352.453 130.063 357.56 127.144 357.785C124.198 358.037 118.614 349.002 118.614 349.002L124.731 339.377L131.578 344.372Z" fill="#F99662"/>
<path d="M130.989 349.058C127.481 348.44 124.17 345.719 123.244 341.734L124.731 339.377L131.578 344.372C131.269 345.943 131.073 347.571 130.989 349.058Z" fill="#F26E5A"/>
<path d="M137.835 326.301C137.835 326.301 140.726 344.372 135.562 346.448C130.399 348.553 123.44 345.214 122.935 339.068C122.402 332.923 123.721 320.408 137.835 326.301Z" fill="#F99662"/>
<path d="M132.616 322.597C132.616 322.597 142.437 319.678 143.027 322.568C143.616 325.431 140.361 327.563 138.116 327.76C135.871 327.928 130.119 327.647 128.351 329.724C126.611 331.8 123.468 341.369 123.468 341.369L121.7 344.147C121.7 344.147 120.971 339.096 118.445 336.01C115.892 332.923 117.323 327.619 119.764 323.971C122.206 320.352 130.399 322.765 132.616 322.597Z" fill="#1E2B5F"/>
<path d="M126.359 334.719C126.359 334.719 125.433 332.193 124.03 332.558C120.887 333.372 123.188 338.956 124.226 339.124C126.331 339.433 127.172 337.777 126.359 334.719Z" fill="#F99662"/>
<path d="M113.366 361.769C113.479 367.746 110.224 385.453 110.224 385.453C110.224 385.453 97.6243 385.2 96.6142 384.19C95.604 383.18 98.8309 356.466 104.415 352.734C111.037 348.244 113.254 355.961 113.366 361.769Z" fill="#F5FFF5"/>
<path d="M322.531 297.202H370.824C375.426 297.202 379.13 293.469 379.13 288.867V272.199C379.13 267.597 375.426 263.865 370.824 263.865H322.531C317.93 263.865 314.197 267.597 314.197 272.199V288.867C314.197 293.469 317.93 297.202 322.531 297.202Z" fill="#1E3877"/>
<path d="M358.702 286.595L359.908 310.194L343.268 286.033L358.702 286.595Z" fill="#1E3877"/>
</svg>
